<?xml version="1.0" standalone="no"?>
<!DOCTYPE svg PUBLIC "-//W3C//DTD SVG 1.1//EN" "http://www.w3.org/Graphics/SVG/1.1/DTD/svg11.dtd" >
<svg xmlns="http://www.w3.org/2000/svg">
<metadata>
Created by FontForge 20120731 at Tue Jul  5 16:57:13 2016
 By admin
</metadata>
<defs>
<font id="iconfont" horiz-adv-x="1024" >
  <font-face 
    font-family="iconfont"
    font-weight="500"
    font-stretch="normal"
    units-per-em="1024"
    panose-1="2 0 6 3 0 0 0 0 0 0"
    ascent="896"
    descent="-128"
    x-height="792"
    bbox="0 -128.533 1063.5 896"
    underline-thickness="50"
    underline-position="-100"
    unicode-range="U+0078-E628"
  />
<missing-glyph horiz-adv-x="374" 
d="M34 0v682h272v-682h-272zM68 34h204v614h-204v-614z" />
    <glyph glyph-name=".notdef" horiz-adv-x="374" 
d="M34 0v682h272v-682h-272zM68 34h204v614h-204v-614z" />
    <glyph glyph-name=".null" horiz-adv-x="0" 
 />
    <glyph glyph-name="nonmarkingreturn" horiz-adv-x="341" 
 />
    <glyph glyph-name="x" unicode="x" horiz-adv-x="1001" 
d="M281 543q-27 -1 -53 -1h-83q-18 0 -36.5 -6t-32.5 -18.5t-23 -32t-9 -45.5v-76h912v41q0 16 -0.5 30t-0.5 18q0 13 -5 29t-17 29.5t-31.5 22.5t-49.5 9h-133v-97h-438v97zM955 310v-52q0 -23 0.5 -52t0.5 -58t-10.5 -47.5t-26 -30t-33 -16t-31.5 -4.5q-14 -1 -29.5 -0.5
t-29.5 0.5h-32l-45 128h-439l-44 -128h-29h-34q-20 0 -45 1q-25 0 -41 9.5t-25.5 23t-13.5 29.5t-4 30v167h911zM163 247q-12 0 -21 -8.5t-9 -21.5t9 -21.5t21 -8.5q13 0 22 8.5t9 21.5t-9 21.5t-22 8.5zM316 123q-8 -26 -14 -48q-5 -19 -10.5 -37t-7.5 -25t-3 -15t1 -14.5
t9.5 -10.5t21.5 -4h37h67h81h80h64h36q23 0 34 12t2 38q-5 13 -9.5 30.5t-9.5 34.5q-5 19 -11 39h-368zM336 498v228q0 11 2.5 23t10 21.5t20.5 15.5t34 6h188q31 0 51.5 -14.5t20.5 -52.5v-227h-327z" />
    <glyph glyph-name="uniE600" unicode="&#xe600;" 
d="M305 -124.5q0 5.5 -8 2.5h-3q-2 0 -3 2.5t-1 7.5v11v25l77 66l76 66v109q0 109 -5 109t-186 -59t-187 -59t-6 43v43l192 149l192 150v143q0 87 2 118t8 45.5t24 28.5q12 9 21 11.5t28 2.5q24 0 39.5 -8t29.5 -30q9 -12 10.5 -34t1.5 -129v-147l192 -150l192 -150v-43
q0 -43 -6 -43t-189.5 60t-185.5 58t1 -113l3 -111l73 -63l73 -63v-25v-11q0 -5 -1 -7.5t-3 -2.5h-3q-8 3 -8 -2q0 -1 -14 1.5t-37.5 9t-51.5 14.5q-104 30 -117 30q-8 0 -96 -24t-118 -35q-6 -2 -6 3.5z" />
    <glyph glyph-name="uniE601" unicode="&#xe601;" 
d="M161 -26q-12 5 -38 34t-26 38q0 11 6 22t157 164l152 152l-152 152q-151 153 -157 164q-8 15 -3.5 27.5t26.5 35.5q23 24 39 31t31 -1q11 -6 164 -157l152 -152l152 152q153 151 164 157q15 8 31 1t39 -31q22 -23 26.5 -35.5t-3.5 -27.5q-6 -11 -157 -164l-152 -152
l152 -152q151 -153 157 -164q8 -15 3.5 -27.5t-26.5 -35.5q-23 -24 -39 -31t-31 1q-11 6 -164 157l-152 152l-152 -152q-153 -151 -164 -157q-16 -8 -35 -1z" />
    <glyph glyph-name="uniE602" unicode="&#xe602;" 
d="M70 -23q-3 8 -3 310v302l11 7q12 7 57 24q33 12 40 13t14 -6q9 -10 161.5 -253t158.5 -250q2 -2 10.5 9t28.5 41.5t50.5 79t79.5 125.5q162 261 168 261t58 -27l51 -27l1 -297q2 -297 -1 -308l-3 -12h-440q-297 0 -368.5 1.5t-73.5 6.5zM900 290l1 266l-19 6
q-18 6 -22 3.5t-153 -240.5q-110 -174 -132.5 -206.5t-37.5 -36.5q-20 -6 -39 0q-14 3 -38 37t-132 199q-150 231 -159 241q-5 6 -9.5 6.5t-17.5 -3.5l-19 -6v-268v-268l388 2l388 1zM771.5 326q-3.5 3 -3.5 13q0 6 8 7.5t43 1.5q50 0 53 -7q2 -5 0.5 -8.5t-8 -6t-17.5 -3
t-28 -0.5q-44 0 -47.5 3zM498 225q-33 8 -46.5 40t3.5 61q15 24 43.5 30.5t52.5 -8.5q32 -19 33 -52.5t-24.5 -56t-61.5 -14.5zM538 257q25 19 16 46t-40 27q-27 0 -36.5 -23t8.5 -43q10 -11 26 -13t26 6zM494 410q-31 9 -43 40.5t5 59.5q18 29 50.5 32.5t56 -18.5t19.5 -56
q-2 -21 -15.5 -37t-33.5 -21q-16 -5 -19.5 -5t-19.5 5zM535 438q8 4 16 18q10 21 -1.5 39.5t-35 18.5t-35 -18.5t-0.5 -39.5q7 -15 14 -17q7 -3 21 -3t21 2zM298 572q-11 2 -24 18q-9 11 -11 24t-2 72q0 60 2 72.5t11 24.5q14 16 28 16t55.5 -11t62.5 -21q14 -7 31 -8.5
t61 -1.5t61 1.5t31 8.5q21 10 62.5 21t55.5 11t28 -16q9 -12 11 -24.5t2 -72.5v-82l-14 -15q-14 -16 -30 -16q-13 -1 -46 7.5t-60 18.5l-25 10l-10 -12q-8 -10 -17 -11.5t-49 -1.5t-49 1.5t-16.5 11t-11.5 10t-17 -5.5q-22 -9 -66 -19.5t-54 -9.5zM392 629l41 14l1 39
q1 29 -0.5 35t-13.5 12q-15 8 -62 21l-46 12l-8 -12q-8 -13 -7 -71.5t10 -64.5q14 -8 85 15zM555 613q2 4 -1 59l-2 55l-42 -1l-42 -2l-1 -50q-1 -51 1 -58q2 -5 42.5 -6.5t44.5 3.5zM717 614q9 6 10 64.5t-7 71.5l-8 12l-46 -12q-47 -13 -62 -20q-11 -6 -13 -12.5t-2 -34.5
v-38l19 -8q14 -6 51 -16.5t45 -10.5q5 -1 13 4z" />
    <glyph glyph-name="uniE603" unicode="&#xe603;" 
d="M433 -68q-31 7 -74 27t-71 40q-98 74 -130.5 196t14.5 238q32 79 100.5 137t153.5 79l35 9l-1 39l-2 39l-19 1l-19 2v45v46h92h92v-46v-45l-19 -2l-19 -1l-2 -40l-1 -39l37 -8q37 -8 85 -34l47 -25v24q0 17 4.5 25t25.5 29q29 29 34 29t34.5 -29.5t29.5 -33.5t-26 -32
q-19 -20 -26.5 -24t-24.5 -4q-25 0 -25 -3t30 -37q74 -82 89 -191.5t-35 -211.5q-56 -115 -169 -170t-240 -29zM585 -12q81 17 146 82t86 151q9 36 6.5 86.5t-16.5 87.5q-19 55 -57 99.5t-89 71.5q-36 19 -62.5 26.5t-66.5 10.5q-105 7 -194 -52.5t-123 -160.5
q-12 -34 -14 -82.5t6 -83.5q21 -90 87 -155t154 -83q25 -5 67 -4.5t70 6.5zM503 271q-6 2 -12 12q-4 7 10.5 24t75.5 78q37 37 56.5 55.5t33 28.5t19 8.5t10.5 -9.5q4 -9 0 -19q-4 -9 -87.5 -92t-91.5 -86q-8 -2 -14 0z" />
    <glyph glyph-name="uniE604" unicode="&#xe604;" 
d="M285 257q-219 263 -218 268t109 127l108 121h221h221l92 -103q92 -103 110 -125l19 -21l-210 -250q-210 -251 -221 -265l-11 -14zM579 292q72 197 72 201t-146 4t-146 -5q0 -6 141 -394q3 -5 5 -5q2 2 74 199zM713 330.5q130 153.5 134 159.5q2 3 -3 4q-10 3 -61 3h-69
l-55 -127q-88 -203 -85 -203l2 2q7 8 137 161.5zM363 337l-67 160h-66q-18 0 -33 -1t-23.5 -1.5t-8.5 -2.5q2 -4 132.5 -160t132 -155t-66.5 160zM368 625q63 74 68 83q4 6 -7 8q-10 1 -54 1h-66l-68 -78q-69 -78 -73 -85q-2 -3 5 -4q10 -2 62 -1l70 1zM641 550
q0 2 -65.5 81.5t-68.5 81.5q-2 1 -70 -78.5t-68 -83.5q0 -3 136 -3t136 2zM844 554q-2 7 -71 84l-68 78h-68q-68 1 -68 -2t65 -80.5t71 -81.5q5 -4 73 -4h33q13 0 20.5 1t10.5 2t2 3z" />
    <glyph glyph-name="uniE605" unicode="&#xe605;" 
d="M11 192l2 260l13 50q52 191 225 290q22 13 68.5 29t72.5 20l22 4v-94v-94l-36 -15q-67 -26 -106.5 -89t-42.5 -147l-2 -36l93 -1l94 -1v-218v-217h-203h-202zM620 200l2 268l14 45q33 106 101 182.5t165 117.5q24 10 63.5 20.5t52.5 10.5q5 0 5 -92v-92l-43 -20
q-47 -22 -75 -51t-44 -70q-27 -70 -27 -126v-25h94h95v-218v-217h-202h-203z" />
    <glyph glyph-name="uniE606" unicode="&#xe606;" 
d="M527 143v236h200h200v-173v-173l-16 -27q-22 -39 -62 -68.5t-70 -29.5h-16v82v81l63 2l62 1v131v130l-160 2l-160 1v-195v-194h72h72v-21v-20h-92h-93v235zM845 -11q31 30 30 38.5t-35 8.5h-36v-39q0 -38 5 -38t36 30zM105 -74q-9 10 -11.5 29t0.5 73q3 63 12 100t33 86
q26 52 65 94q33 35 56.5 52.5t67.5 39.5l42 21l-32 31q-32 32 -51 70q-12 26 -15.5 40.5t-4.5 48.5q-4 88 43 151q21 29 40 44.5t52 31.5q70 33 146.5 20t129.5 -68q76 -76 68 -188q-2 -25 -6.5 -40.5t-17.5 -42.5l-21 -43h-44h-45l18 15q18 15 36 47q11 21 14.5 34.5
t4.5 41.5q2 44 -9 73q-24 63 -88.5 95.5t-128.5 13.5q-68 -19 -105 -74.5t-29.5 -121t60.5 -110.5q27 -24 31 -24t4 -49q0 -32 -1.5 -40t-7.5 -8q-13 -1 -54 -21t-64 -37q-65 -50 -101 -124q-38 -78 -38 -166v-41h130h131v-31v-31h-151q-98 0 -125.5 1.5t-33.5 6.5zM609 172
v17h118h118v-17v-18h-118h-118v18zM612.5 228.5q-3.5 3.5 -3.5 20.5v17h118h118v-20v-21h-115q-114 0 -117.5 3.5z" />
    <glyph glyph-name="uniE607" unicode="&#xe607;" horiz-adv-x="1029" 
d="M106 -121q-31 9 -56.5 33t-37.5 57q-5 14 -6.5 87.5t-1.5 327.5v48q0 280 4 331.5t28 78.5l5 5q20 23 44 34l24 12h374h375l30 -15q30 -16 51 -45l20 -30l2 -73q1 -64 -3.5 -79.5t-23.5 -15.5q-21 0 -27.5 15t-6.5 67q0 49 -6.5 67.5t-30.5 36.5q-11 8 -59 9.5t-317 1.5
q-266 0 -316.5 -1.5t-63.5 -8.5q-18 -11 -30 -33l-11 -23v-382v-382l11 -23q9 -16 15 -23.5t24.5 -13t42 -6.5t75.5 -3q88 -2 103 -6t15 -25q0 -11 -3 -16.5t-17 -8.5t-36 -4t-66 -1q-100 1 -124 7zM987 -124q-7 2 -82 76l-74 74l-45 -28q-44 -27 -89 -42
q-31 -10 -49.5 -12.5t-69.5 -2.5q-53 0 -70.5 2.5t-48.5 13.5q-48 17 -79 37t-68 57t-59 71.5t-37 79.5q-10 28 -12 47t-2 71t2 71t12 47q15 45 37 79.5t58.5 71.5t71 59t80.5 37q27 9 46 11t71.5 2t71 -2t46.5 -11q45 -15 79.5 -37t71.5 -59q56 -57 82.5 -115.5
t29.5 -134.5q5 -130 -62 -230l-26 -38l78 -78q77 -78 77 -89t-13 -21q-11 -9 -14.5 -10t-13.5 3zM647 8q80 17 142.5 71.5t93.5 135.5q9 26 11.5 43t3 59.5t-2 60t-12.5 45.5q-19 57 -59 103.5t-92 74.5q-36 19 -63 27t-66 10q-87 6 -164 -32q-78 -39 -126 -111
q-28 -42 -39 -80.5t-11 -94.5q0 -40 2.5 -58t11.5 -45q21 -59 62 -106.5t97 -74.5q103 -51 211 -28zM564 75q-10 6 -11.5 21t7.5 23q7 8 37 11q66 9 111 50q49 44 62 120q5 32 11.5 40t23.5 7q19 -2 24.5 -17t0.5 -49q-13 -78 -66.5 -134.5t-128.5 -72.5q-33 -7 -47 -7
t-24 8zM359 384q-11 10 -10.5 19t12.5 33q18 37 61 74.5t67 37.5q11 0 19.5 -10.5t6.5 -23.5q-1 -15 -30 -34q-49 -32 -73 -79q-11 -21 -25 -25.5t-28 8.5z" />
    <glyph glyph-name="uniE608" unicode="&#xe608;" 
d="M406 -62q-160 27 -242 134t-48 242q18 70 64 140q53 82 116 132q33 26 35 27.5t-11 26.5q-33 63 -5 109.5t109 63.5q32 7 92.5 7t93.5 -7q73 -15 103 -58q34 -49 1 -113l-14 -28l14 -10q20 -14 66.5 -62.5t63.5 -73.5q73 -108 80 -206q8 -101 -49 -182t-163 -119
q-61 -22 -147.5 -28.5t-158.5 5.5zM614 -3q81 12 142 51.5t88 97.5q11 24 14.5 39t5.5 45q1 42 -6.5 72.5t-30.5 75.5q-35 68 -88.5 123.5t-109.5 82.5l-39 19l23 15q21 14 39 39.5t18 41.5t-16 30.5t-43 22.5q-30 9 -94 9t-94 -9q-28 -8 -44 -21.5t-16 -28.5q0 -22 18 -47
t48 -45l12 -8l-33 -15q-75 -36 -141 -115.5t-91 -165.5q-13 -44 -6 -95.5t31 -90.5q12 -19 42 -46t50 -38q130 -66 321 -39zM496 140q-10 10 -10 43v34h-35q-33 0 -46.5 6.5t-15.5 22.5q-2 19 9.5 25.5t46.5 6.5h41v18v18h-41q-27 0 -35 2t-14 9q-13 19 -2.5 32.5t41.5 16.5
l26 3l-26 26q-40 40 -17 61q12 11 24.5 6t39.5 -32l34 -34l35 34q27 27 40 32t24.5 -7t7.5 -25.5t-25 -34.5l-26 -26l27 -3q30 -3 41 -18t-6 -32q-6 -6 -15.5 -8t-33.5 -2h-38v-18v-18h38q30 0 42 -6.5t12 -22.5q0 -17 -11 -23.5t-42 -8.5l-39 -2v-32q0 -53 -31 -53
q-10 0 -20 10z" />
    <glyph glyph-name="uniE609" unicode="&#xe609;" 
d="M246 -33q-1 0 -2 1q-18 10 -21 58.5t-3 331.5v33q-1 392 4 405t19 22q10 7 51.5 8.5t222 1.5t222 -1.5t50.5 -8.5q15 -9 19 -22q6 -15 5.5 -405t-6.5 -403q-7 -16 -19 -20q-25 -8 -227 -8h-1h-1h-1h-1h-1h-1h-1h-1h-1h-1h-1h-1h-1h-1h-1h-1h-1h-1h-1h-1h-1h-1h-1h-1h-1
h-1h-1h-1h-1h-1h-1h-1h-1h-1h-1h-1h-1h-1h-1h-1h-1h-1h-1h-2h-1q-257 0 -269 7zM543 15q16 14 1 36q-5 7 -10.5 9t-18.5 1t-19 -4t-10 -11q-9 -16 0 -28.5t25 -13t32 10.5zM762 423v315h-246h-245v-315v-315h245h246v315z" />
    <glyph glyph-name="uniE60A" unicode="&#xe60a;" 
d="M80 -56q-6 4 -7.5 64t-1.5 343v401l11 8q22 15 40 -2q8 -8 9 -58.5t1 -325.5v-374h376q248 0 313.5 -1.5t72.5 -6.5q11 -7 11.5 -21.5t-9.5 -23.5q-6 -6 -70.5 -7t-337.5 -1q-399 0 -408 5zM207.5 74.5q-8.5 8.5 -8.5 21t67 113.5t69.5 103.5t95.5 4.5l92 3l30 115
q29 115 32 123t106 76q81 54 104.5 63t38.5 -6q9 -9 10.5 -15.5t-10 -18.5t-32.5 -27t-65 -44q-92 -60 -95 -68.5t-33.5 -126t-41.5 -126.5q-7 -6 -24.5 -7.5t-76.5 -1.5h-91l-64 -93q-43 -64 -56 -79t-23 -16q-16 -2 -24.5 6.5z" />
    <glyph glyph-name="uniE60B" unicode="&#xe60b;" 
d="M152 -54q-46 16 -67 61l-14 27l2 271l1 272l16 25q31 51 91 57q29 3 29 9q1 9 47 84t52 76q8 2 98 -50l90 -52l55 29q105 55 127.5 65t29.5 5q8 -7 53 -85l44 -78l33 -3q63 -5 95 -57l16 -25v-277v-278l-16 -25q-15 -25 -40 -40l-25 -16l-349 -1q-348 -1 -368 6zM871 24
q11 13 13 22.5t2 48.5v53h-132h-22h-43q-13 0 -33.5 1.5t-27.5 2t-19.5 5.5t-15 7.5t-9 13t-7 16.5t-2 23t-1.5 28v36v19v18v36q0 11 1.5 28.5t2 23t7 16t9 13t15 7.5t19.5 5.5t27.5 2t33.5 1.5h43h22h132v53q0 39 -2 48.5t-13 22.5l-15 16h-344h-344l-15 -16l-15 -17v-258
q0 -192 1.5 -226.5t9.5 -45.5q11 -13 22 -17.5t348 -3.5l337 1zM886 300v110l-135 -2l-134 -1l-1 -102q-2 -102 0.5 -109t135.5 -7h134v111zM730 218q-14 4 -29.5 17.5t-21.5 28.5q-22 45 8 84.5t81 33.5q35 -5 55 -32.5t16 -61.5t-33 -56q-12 -9 -36 -13.5t-40 -0.5z
M788 269q19 24 7.5 49.5t-40.5 25.5q-30 0 -42 -26.5t9 -48.5q13 -14 34 -14t32 14zM526 663q-2 3 -104 61l-102 59l-27 -47q-28 -47 -35 -61l-7 -15h139q37 0 69 0.5t50 1t17 1.5zM727 721q-35 60 -42 58q-9 -2 -75.5 -38t-66.5 -39t34 -22l35 -19h75l76 -1z" />
    <glyph glyph-name="uniE60C" unicode="&#xe60c;" 
d="M462 -65q-37 4 -62 12t-64 27q-74 35 -131 105.5t-78 150.5q-20 75 -6 153.5t59 146.5q75 114 229 168q47 17 47 22.5t-25 31.5q-22 21 -24.5 32t11.5 24q16 16 32 12.5t43 -29.5q33 -29 70 -59q30 -24 39.5 -38t5.5 -28q-2 -9 -36.5 -54t-67.5 -81q-28 -32 -49 -22
q-13 6 -19 17t0.5 24.5t29.5 41.5q21 25 21 29q0 6 -17.5 7.5t-40.5 -2.5q-79 -14 -149 -84q-42 -41 -55 -67q-39 -77 -37 -160.5t43 -154.5q20 -33 58.5 -69.5t71.5 -52.5q76 -37 157.5 -35t153.5 43q85 50 128 144.5t23 188.5q-7 33 -25 72t-37 65q-18 24 -23.5 36.5
t-2.5 24.5t17.5 17.5t26.5 -0.5q23 -12 57.5 -65.5t48.5 -99.5q11 -36 10 -105t-13 -107q-10 -34 -32.5 -77.5t-40.5 -66.5q-19 -24 -56 -54t-66 -45q-47 -25 -108.5 -35.5t-116.5 -3.5z" />
    <glyph glyph-name="uniE60D" unicode="&#xe60d;" horiz-adv-x="1063" 
d="M712 -78q-67 62 -89.5 97.5t-3.5 50.5q17 14 33 7t54 -45q48 -48 63 -58l14 -9l15 17q15 18 90 118q78 103 102.5 130.5t40.5 27.5q10 0 15 -3t9 -12q17 -32 0 -47q-8 -6 -43 -57.5t-81.5 -105t-77.5 -98.5q-24 -36 -37 -47.5t-32 -15.5q-10 -1 -22 7t-50 43zM72 -89
q-19 8 -35.5 29.5t-22.5 46.5q-3 13 -4 420v96q-1 250 3.5 295t32.5 62q7 4 11 7l28 19l411 1q322 1 380.5 -1.5t82.5 -17.5q11 -7 23 -34q8 -19 9.5 -52.5t0.5 -206.5q-1 -232 -6 -239q-6 -7 -21 -6t-26 10l-14 11v216q0 217 -5 230q-6 17 -62 20.5t-346 3.5
q-361 -1 -390 -4q-21 -2 -26 -5t-10 -17q-6 -18 -6 -393.5t4 -394.5q4 -18 16 -23q23 -9 208 -9h1h1h1h1h1h1h1h1h1h1h1h1h1h1h1l1 -1h1h1h1h1h1h1h1h1h1h1h1h1h1h1h1h1h1h1h1h1h1h1h2q227 0 238.5 -6.5t15 -20t-3.5 -26.5l-8 -13l-253 -1q-252 -1 -265 4zM299 166
q-16 32 2 48q6 6 42 7t178 1h210l8 -15q8 -16 6 -30q-2 -17 -39 -21t-201 -5h-198zM466 364q-156 2 -162 7q-9 8 -10.5 25t6.5 26q6 7 36.5 8.5t183.5 1.5h211l7 -12q8 -11 8 -27q0 -23 -43 -27t-237 -2zM299 590q-14 28 2 43q6 6 42.5 7t178.5 1h213l5 -13q6 -13 6 -26
q0 -19 -35 -23t-202 -4h-202z" />
    <glyph glyph-name="uniE60E" unicode="&#xe60e;" 
d="M256 -35q-40 13 -62 46l-17 24l-2 75l-2 76h26h25l2 -64q1 -41 3.5 -54.5t9.5 -23.5l1 -2q14 -19 52.5 -22t257.5 -3h20h26q219 0 257 3.5t49 26.5l1 2q6 12 7 67.5t1 269t-1 269t-7 67.5q0 1 -1 2q-11 23 -49 26.5t-257 3.5h-26h-20q-219 0 -257.5 -3t-52.5 -22
q-1 -1 -1 -2q-7 -9 -9.5 -23t-3.5 -55l-2 -64h-25h-26l2 76l2 75l17 25q16 24 38 35l21 12h315h315l23 -13q23 -13 38 -35l16 -22v-352v-353l-16 -22q-15 -22 -38 -35l-23 -13l-307 -1q-307 -1 -320 3zM610 168q-16 12 -5.5 29.5t71.5 77.5q77 77 77 81t-339.5 4t-345.5 6
t-6 19.5t6 19.5t345.5 6t339.5 4t-77 80.5t-77 88.5q0 10 12.5 19t22.5 6q9 -3 112.5 -107t103.5 -116.5t-106.5 -119t-114 -106.5t-19.5 8z" />
    <glyph glyph-name="uniE60F" unicode="&#xe60f;" 
d="M91 -63.5q0 2.5 29 100.5q23 83 37 117.5t27 42.5q12 8 96 36q128 44 153 71q9 10 12 42q2 23 -0.5 30.5t-18.5 27.5q-22 26 -33 57t-16 31q-11 0 -20.5 42t0.5 47q4 3 -1 33t1 66.5t19 53.5q12 17 22 37q18 38 53.5 48.5t99.5 -2.5q61 -13 88 0q6 2 12 -6t10 -23t4 -31
q0 -27 8.5 -52t5.5 -72.5t2 -50.5q10 -7 1 -44.5t-23 -45.5q-10 -5 -10 -14q0 -11 -12 -34.5t-27 -41.5q-13 -16 -15 -23.5t0 -30.5q4 -39 34 -60t134 -56q7 -3 20 -7q31 -10 43 -14t28.5 -15t20.5 -16.5t13.5 -27.5t13 -38.5t12.5 -57.5q5 -18 7 -28q20 -88 20 -91t-425 -3
t-425 2.5z" />
    <glyph glyph-name="uniE610" unicode="&#xe610;" 
d="M434 -102q-168 31 -275 157t-107 294q0 192 136 326q31 31 49.5 42.5t37.5 11.5q26 0 45 -19.5t19 -46.5q0 -14 -11.5 -29t-48.5 -51q-99 -95 -99 -231q0 -108 65 -196t168 -121q38 -12 94.5 -12t94.5 12t80.5 39t68.5 56q24 27 46 68.5t31 75.5q7 30 7 77.5t-8 77.5
q-28 109 -116 180q-31 24 -39 43t2 45q9 21 30 31.5t44 4.5q35 -9 87.5 -65t83.5 -117q39 -79 43 -184q2 -46 0.5 -67t-8.5 -50q-30 -124 -115 -213.5t-206 -125.5q-46 -13 -110 -15t-89 2zM476 357h-1q-22 12 -25.5 41.5t-3.5 196.5v10q0 146 1.5 183.5t7.5 47.5
q7 12 23 21t29 9q14 0 30.5 -8.5t24.5 -20.5q7 -10 8.5 -42.5t2.5 -180.5q1 -173 -3 -206.5t-27 -48.5q-15 -9 -33.5 -9.5t-33.5 7.5z" />
    <glyph glyph-name="uniE611" unicode="&#xe611;" 
d="M429 -58q-64 13 -104 34q-10 6 -1 7q8 1 39 1q128 3 277 65t262 160q36 30 36 23q1 -6 -25 -57q-58 -113 -165.5 -177.5t-235.5 -62.5q-49 0 -83 7zM255 67q-51 7 -67.5 16.5t-41.5 46.5q-30 45 -28 47t30 -6q30 -8 99 -8t116 9q83 16 180.5 56.5t175.5 92.5
q61 40 114.5 93t86.5 105l15 25l6 -17q21 -64 21 -115q0 -23 -3.5 -31.5t-23.5 -31.5q-40 -47 -110.5 -99t-147.5 -92q-47 -24 -117.5 -48.5t-117.5 -33.5q-40 -8 -97.5 -10.5t-89.5 1.5zM163 275q-33 7 -61 21l-29 15l-4 42q-4 43 -2 45t25 -6q23 -9 88.5 -11.5t104.5 4.5
q43 6 101 25.5t99 41.5q76 39 128.5 81t93.5 96q18 23 39 63t21 50t16 -1q8 -6 27 -21q30 -25 33.5 -40.5t-12.5 -56.5q-41 -111 -165 -204.5t-283 -134.5q-46 -12 -114 -15t-106 6zM207 501q-46 5 -78.5 16t-31.5 21q0 11 23 50.5t28 37.5q58 -14 95.5 -15t82.5 9
q73 18 132 62.5t92 108.5l19 35l23 -3q33 -5 60.5 -15.5t27.5 -17.5q0 -19 -28.5 -64t-62.5 -80q-25 -25 -70 -55.5t-83 -47.5q-48 -22 -118 -35t-111 -7zM253 691q-21 5 -22 15.5t17 31.5q28 31 89 53.5t91 12.5q17 -5 16.5 -15.5t-18.5 -30.5q-27 -30 -85 -52.5t-88 -14.5
z" />
    <glyph glyph-name="uniE612" unicode="&#xe612;" 
d="M369 101q-17 9 -158.5 137.5t-150.5 142.5q-17 29 1 58q13 22 41.5 29.5t51.5 -5.5q15 -7 115 -98t117 -105l18 -15l230 209q231 209 245 215q27 12 55 2.5t39 -35.5q10 -22 4 -39q-3 -10 -58.5 -63t-206.5 -189q-259 -234 -277 -244q-34 -17 -66 0z" />
    <glyph glyph-name="uniE613" unicode="&#xe613;" 
d="M185 -59q-1 1 -2 1q-18 10 -21 59.5t-3 337.5v34q0 273 1 339.5t7 78.5q12 25 43.5 29.5t203.5 4.5h205l123 -130l123 -130v-297v-298l-15 -16l-15 -17l-319 -1q-319 -2 -331 5zM813 250l1 263h-102q-67 0 -86 1.5t-26 7.5q-13 12 -17 39t-4 109v104l-183 -1l-184 -2
l-1 -386q-1 -387 1.5 -393.5t300.5 -4.5l299 1zM292 170v25h223h222v-25v-26h-222h-223v26zM292 272v26h223h223l-2 -25l-1 -24l-222 -1l-221 -2v26zM292 405v26h102h103v-26v-25h-103h-102v25zM292 513v25h102h103v-25v-26h-103h-102v26zM711 647l-79 82l-1 -71
q0 -9 -1 -24q-1 -53 6.5 -62t54.5 -8h21h78z" />
    <glyph glyph-name="uniE614" unicode="&#xe614;" 
d="M104 82q-17 8 -27 24q-8 13 -9 50t-1 219q0 183 1 220t9 49l2 4q13 22 61 25.5t323 3.5h49h49q275 0 323 -3.5t61 -25.5l2 -4q8 -12 9 -49t1 -220t-1 -219.5t-9 -49.5q-1 -1 -2 -4q-13 -21 -61.5 -25t-323.5 -4h-49q-261 0 -328.5 1.5t-78.5 7.5zM827 149q-15 15 -109 98
l-93 83l-25 -21q-43 -36 -88 -36q-44 0 -87 36l-25 21l-99 -88q-99 -88 -109 -98q-5 -5 7 -6q23 -3 313 -3h330zM260 288q28 25 45 41t27.5 26.5t13.5 15.5t1 7q-7 5 -110 96t-106 91t-3 -198v-198l19 18q20 17 113 101zM895 469l-2 98l-107 -95q-108 -94 -110.5 -98
t107.5 -103l110 -99l2 99q1 100 0 198zM539 344q14 9 161 139l147 130l-168 2q-167 1 -334 0l-167 -2l147 -130q147 -131 161 -140q26 -17 53 1z" />
    <glyph glyph-name="uniE615" unicode="&#xe615;" horiz-adv-x="1028" 
d="M164 -122q-27 4 -58 21t-49 36q-18 20 -31 49l-14 29l-1 364q-1 271 0 321.5t9 72.5q18 48 58.5 80t92.5 40q34 5 217.5 5t196.5 -5q12 -5 15.5 -16t-4.5 -22l-8 -13l-209 -1q-155 -1 -185 -3t-50 -11q-44 -20 -68 -68q-8 -15 -9.5 -64.5t-0.5 -311.5v-70q0 -231 4 -273
t30 -65q5 -5 8 -7l4 -4q25 -23 71 -27t296 -4h40h349l30 15q24 13 43 35.5t26 48.5q5 19 5 219q0 132 1.5 168t6.5 41q9 9 21.5 7.5t19.5 -11.5q5 -9 6 -46.5t0 -175.5q-1 -153 -3 -185t-10 -53q-18 -46 -59.5 -78t-90.5 -39q-31 -5 -352 -4.5t-348 5.5zM347 283v68l265 264
q5 4 15 15q200 199 238.5 231.5t72.5 27.5h2q47 -7 72 -48q12 -22 13 -47.5t-9 -45.5q-9 -18 -266 -276l-256 -257h-74h-73v68zM434 300q-27 28 -28.5 28t-1.5 -28v-29h29h29zM693 497l184 184l-29 29l-30 30l-185 -186l-186 -185l28 -28q28 -29 31 -29t187 185zM948 751
q41 41 11 71q-15 16 -32 12.5t-41 -26.5l-27 -27l27 -27q27 -27 32 -27t30 24z" />
    <glyph glyph-name="uniE616" unicode="&#xe616;" 
d="M43 -113l-13 13l2 141q1 98 3.5 126t10.5 52q38 119 136 180l38 23l-24 19q-99 78 -99 201q0 97 67 170q67 74 165.5 82.5t181.5 -52.5q22 -16 44 -47q61 -82 50 -183t-87 -163q-29 -24 -30 -27q-2 -4 22 -15.5t30 -8.5q8 3 30 -8q16 -8 21.5 -8t20.5 7q19 9 26 29.5
t13.5 24.5t53.5 4q39 0 50 -5t16 -26q3 -16 25 -26l21 -11l22 11q15 8 20.5 8.5t12.5 -4.5q12 -8 33.5 -29t28.5 -32q6 -9 6 -14t-8 -20t-8 -20.5t7 -22.5q7 -15 12.5 -20.5t19.5 -9.5q16 -6 19.5 -10.5t6.5 -22.5q3 -25 0 -57l-2 -32l-24 -8q-15 -5 -21 -10t-11 -18
q-7 -16 -6.5 -21.5t7.5 -20.5q7 -14 8 -19.5t-4 -13.5q-7 -13 -37 -40.5t-37 -27.5t-26 9q-14 7 -19.5 7t-20.5 -7q-14 -6 -19 -11.5t-9 -19.5l-6 -23l-29 -3q-29 -3 -58 0l-29 3l-6 22q-4 15 -9 20.5t-19 11.5q-15 7 -20.5 7t-19.5 -7q-19 -9 -26 -9t-28.5 18.5t-36.5 38.5
l-17 20l11 23q8 16 8.5 22t-6.5 21q-5 13 -11 18t-21 10l-24 8l-3 32q-2 32 1 57q2 18 6 22.5t20 10.5q14 4 20 10t12 19q7 17 7 22.5t-8 21.5l-11 21l11 15l11 15l-27 12q-61 27 -124 22q-119 -8 -186 -99q-27 -35 -35.5 -56.5t-12 -56t-5.5 -129.5q-2 -112 -3.5 -132
t-10.5 -28q-12 -9 -20 -8.5t-20 12.5zM724 -60.5q10 3.5 16 20.5q3 10 10 15.5t27 13.5q22 9 29 10t18 -5t15.5 -6t13.5 6q12 8 20 20q6 8 6 12.5t-6 15.5q-6 12 -5.5 18.5t9.5 29.5q8 20 13.5 27t16.5 10q12 4 15 9t4 26l1 28l-19 6q-13 4 -18.5 10t-13.5 27q-9 23 -9 29.5
t6 19.5l8 18l-19 20l-19 19l-18 -9q-13 -7 -19 -6.5t-25 8.5q-26 13 -31.5 13t-11.5 20l-6 21h-28h-28l-6 -21q-6 -20 -11.5 -20t-31.5 -13q-19 -8 -25 -8.5t-19 6.5l-18 9l-19 -19l-19 -20l8 -18q6 -13 6 -19.5t-9 -29.5q-8 -21 -13.5 -27t-18.5 -10l-19 -6l1 -28
q1 -21 4 -26t15 -9q11 -3 16.5 -10t13.5 -27q9 -23 9.5 -29.5t-5.5 -18.5q-6 -11 -6 -15.5t6 -12.5q8 -12 20 -20q9 -6 13.5 -6t15.5 6t18 5t29 -10q20 -8 27 -13.5t10 -15.5q9 -24 36 -24q10 0 20 3.5zM663 76q-40 22 -50.5 63t14.5 77q11 16 34.5 29t42.5 13q13 0 38 -11
q33 -14 47.5 -44t6.5 -63t-36 -55q-18 -13 -48.5 -16t-48.5 7zM727 140q19 19 1 41q-13 16 -35 8t-22 -29q0 -11 11 -20.5t22 -9.5q13 0 23 10zM424 463q27 11 57.5 39t44.5 57q10 19 12 32.5t2 50.5q0 48 -9.5 73t-39.5 57q-50 53 -119 60.5t-127 -31t-78 -108.5
q-15 -51 0 -103q24 -83 99 -120t158 -7z" />
    <glyph glyph-name="uniE617" unicode="&#xe617;" 
d="M321 -62q-34 11 -62.5 36.5t-45.5 60.5q-9 17 -10.5 34.5t-1.5 86.5q0 71 1.5 88t11.5 39q12 24 35.5 48.5t42.5 32.5q16 6 18 7.5t-19 44.5q-68 136 -2 274q18 40 50 72t72 51q30 14 43 16.5t56.5 2.5t56.5 -2.5t43 -16.5q40 -19 72 -51t50 -72q65 -138 -2 -274
q-21 -43 -19 -44.5t18 -7.5q19 -8 42.5 -32.5t35.5 -48.5q10 -22 11.5 -39t1.5 -88q0 -69 -1.5 -86.5t-10.5 -34.5q-13 -26 -35 -49.5t-44 -35.5l-27 -14l-184 -1q-184 -1 -197 3zM691 2q48 23 68 72q7 18 7 83q0 44 -2 59t-10 33q-10 21 -31.5 41.5t-41.5 27.5
q-12 4 -21 1.5t-36 -16.5q-40 -21 -77 -27q-73 -13 -150 27q-27 14 -36 16.5t-21 -1.5q-20 -7 -41.5 -27.5t-31.5 -41.5q-8 -18 -10 -33t-3 -59q0 -65 8 -83q13 -32 40 -54.5t61 -29.5q22 -5 160 -4l138 1zM584 343q65 31 100 103t22 149q-10 57 -42 101.5t-80 67.5
q-21 10 -34.5 13t-39 3t-39 -3t-35.5 -13q-64 -31 -98.5 -99.5t-23.5 -145.5q10 -67 52.5 -119.5t100.5 -67.5q21 -5 59 -1.5t58 12.5z" />
    <glyph glyph-name="uniE618" unicode="&#xe618;" horiz-adv-x="1027" 
d="M252 -9q-89 15 -155 79.5t-86 155.5q-19 93 23.5 183.5t126.5 135.5q48 25 88.5 29.5t202.5 4.5h192v79q0 64 4.5 83.5t19.5 26.5q25 12 46 -6l15 -13l2 -85l1 -85h21q41 0 94 -23t87 -56q59 -58 80.5 -135t5 -148t-69 -131t-132.5 -86q-24 -9 -63 -10.5t-223 -2.5
q-254 -1 -280 4zM759 73q62 9 108.5 48.5t66.5 98.5q8 28 6 75q-1 30 -4.5 44.5t-13.5 36.5q-22 45 -62 76t-88 40q-26 5 -255.5 5t-256.5 -5q-47 -9 -87 -40t-62 -76q-11 -22 -14 -36.5t-5 -44.5q-1 -40 5.5 -68t25.5 -59q23 -36 63.5 -62.5t82.5 -32.5q32 -5 245 -5t245 5
zM328 139q-12 5 -19.5 24.5t-7.5 46.5v30l-41 2q-27 1 -36 3.5t-15 10.5q-11 13 -10 29.5t12 26.5q7 7 16.5 9t33.5 2h39l2 41q2 26 4.5 36t10.5 18q11 12 27.5 13t29.5 -10q8 -6 10 -15.5t4 -38.5l1 -44h38q34 0 44 -3.5t17 -17.5q8 -15 7 -24t-14 -22q-11 -10 -19 -12.5
t-35 -2.5h-39v-38q0 -24 -2 -33.5t-9 -17.5q-22 -24 -49 -13zM605 247q-22 8 -22 39q0 26 27.5 35t43.5 -11q14 -17 10 -34.5t-23 -28.5q-16 -8 -36 0zM775 247q-19 12 -22.5 29t9.5 34q17 21 44.5 11t27.5 -37q0 -23 -20.5 -35.5t-38.5 -1.5z" />
    <glyph glyph-name="uniE619" unicode="&#xe619;" 
d="M260 2q-222 123 -231 131q-14 12 -8 27t24 15q13 0 228 -120l215 -119l154 50q153 51 234 77l81 25l8 29q8 29 6 60q-3 28 -12 49t-17 18q-39 -15 -250 -85.5t-214 -69.5q-6 1 -230 127q-175 97 -205.5 119t-19.5 39q9 15 46 -1.5t201 -108.5l216 -121l235 81q16 5 47 16
q149 51 174.5 64.5t27.5 45.5q0 6 1 10q1 19 -1 30t-12 33l-16 33l-63 -22q-63 -23 -228.5 -82t-169.5 -59t-232 126q-165 93 -196 112t-32 31q-2 17 9 23t20.5 3.5t221.5 -121.5l213 -119l230 83l231 83l10 21q22 47 9 93q-8 28 -13 31t-236 -84.5t-238 -86t-238 126.5
q-221 122 -221 130q8 4 259 67l251 64l220 -77q7 -3 21 -7q160 -56 189 -71t45 -49q2 -3 2 -5q18 -38 15.5 -85t-24.5 -83l-10 -16l17 -32q16 -33 18 -74q2 -27 0 -40t-11 -34l-13 -32l11 -24q12 -27 13.5 -70.5t-8.5 -77.5q-11 -36 -20 -46.5t-247 -87.5t-252 -82
q-9 -3 -49 17.5t-186 101.5zM676.5 616q190.5 72 197.5 76q6 3 -2 7q-8 3 -45 16l-35 12l-197 -67q-53 -18 -98 -34t-70.5 -26t-24.5 -11q3 -3 41.5 -24t41.5 -21q1 0 191.5 72z" />
    <glyph glyph-name="uniE61A" unicode="&#xe61a;" 
d="M445 -125q-135 19 -245.5 104t-159.5 209q-22 55 -28.5 92t-6.5 101t6.5 101t28.5 91q43 109 136 190t211 112q32 8 54.5 10.5t67.5 2.5q72 0 124.5 -12t113.5 -43q31 -16 35.5 -21t-4.5 -15l-10 -11l-45 22q-101 49 -212.5 49t-210.5 -49q-101 -51 -168.5 -140
t-89.5 -203q-7 -31 -7 -84.5t7 -84.5q28 -141 123 -242.5t232 -135.5q80 -20 166 -11t161 47q85 42 146.5 113t91.5 154t27 177t-43 180l-14 32l13 9q11 7 16 2t21 -45q23 -54 30 -92t7 -103q0 -64 -6.5 -101t-28.5 -92q-54 -136 -177.5 -222.5t-273.5 -92.5q-54 -3 -88 2z
M187 106q9 23 39.5 86t35 69t160.5 155t193 183q9 9 12 9t9 -6.5t-17.5 -32t-150.5 -145.5q-176 -168 -179 -180q-5 -19 11.5 -37t34.5 -13q13 3 190 171.5t181 168.5t11 -8l1 -2q5 -4 -10 -20q-18 -19 -152 -147h-1l-1 -1l-1 -1l-1 -1l-1 -1l-1 -1l-1 -1l-1 -1l-1 -1h-1
l-1 -1l-1 -1v-1l-1 -1l-1 -1l-1 -1l-1 -1l-1 -1l-1 -1l-1 -1h-1l-1 -1l-1 -1l-1 -1l-1 -1l-1 -1l-1 -1l-1 -1l-1 -1l-1 -1l-1 -1l-1 -1l-1 -1l-1 -1h-1l-1 -1l-1 -1l-1 -1l-1 -1l-1 -1l-2 -2q-152 -145 -161 -151q-7 -4 -85 -36t-82 -32q-3 0 0 6zM794 601.5q-6 6.5 -6 9.5
t38 41q33 33 38 50t-12 34t-35 10.5t-58 -45.5q-23 -22 -29 -25.5t-12 3t-2.5 13t29.5 31.5q30 32 47.5 42.5t37.5 10.5q33 0 53.5 -31t6.5 -59q-5 -9 -44 -50t-43 -41q-3 0 -9 6.5z" />
    <glyph glyph-name="uniE61B" unicode="&#xe61b;" horiz-adv-x="1025" 
d="M154 -123q-40 8 -77 38.5t-56 70.5l-14 31v362v362l12 30q11 28 36.5 56t53.5 42q30 15 84 18.5t250 3.5l216 1l-35 -36l-35 -35l-194 -2q-144 -1 -172.5 -2.5t-48.5 -10.5q-27 -12 -52 -39t-35 -56q-9 -22 -10 -65t0 -274q1 -229 2.5 -272t9.5 -61q11 -23 34 -46t47 -35
l26 -13h318h319l26 14q24 13 46.5 36t33.5 47q8 19 10 48t3 172l2 194l31 31q32 32 35 32t4 -112.5t-0.5 -233t-4.5 -138.5q-10 -67 -55 -109q-42 -39 -95 -49q-27 -5 -358.5 -5t-356.5 5zM210 84q3 9 32 116.5t34.5 118.5t194.5 197l189 186l89 -87l88 -87l-193 -193
l-193 -193l-113 -31q-112 -31 -121 -34q-6 -1 -7 0t0 7zM346 175l43 12l175 175q175 175 175 183.5t-32 37.5l-31 29l-175 -175q-176 -175 -182 -185q-3 -7 -13.5 -43t-10.5 -43q0 -5 20 0q9 3 31 9zM803.5 669.5q-85.5 83.5 -85.5 87.5q0 6 57 60.5t71 62.5q20 10 52.5 9
t56.5 -12q44 -22 61 -72.5t-5 -93.5q-6 -11 -60 -68.5t-59 -56.5q-3 0 -88.5 83.5zM921 699q23 24 30 36.5t7 30.5q0 19 -17 38q-12 13 -19 16t-27 3q-21 0 -29 -4t-31 -28l-32 -32l43 -43q43 -44 46 -44t29 27z" />
    <glyph glyph-name="uniE61C" unicode="&#xe61c;" 
d="M79 -118q-20 20 -3 45l8 11h421q310 0 366.5 -1t63.5 -9q10 -10 10 -23t-10 -23q-7 -7 -63.5 -8.5t-365 -1.5t-364.5 1.5t-63 8.5zM133 -15q-7 4 -8 18t6 21q6 6 376 6t376 -6q7 -7 6 -18.5t-8 -18.5q-5 -5 -67 -6.5t-306 -1.5q-366 0 -375 6zM169 71q-8 5 -8.5 16.5
t5.5 18.5q6 6 18 6h12v159v160l-17 5q-13 4 -17.5 14.5t4.5 20.5q6 8 85 8.5t87 -6.5q11 -11 4.5 -25.5t-22.5 -14.5h-12v-161v-160h12q11 0 17.5 -6.5t6.5 -16.5q0 -16 -14.5 -19.5t-74.5 -3.5q-77 0 -86 5zM421 72q-11 11 -4.5 25.5t22.5 14.5h12v160v161h-12
q-16 0 -22.5 14.5t4.5 25.5q7 7 86.5 6.5t85.5 -8.5q9 -10 4.5 -20.5t-17.5 -14.5l-17 -5v-160v-159h12q11 0 18 -6q7 -8 5.5 -19.5t-9.5 -15.5q-11 -6 -86.5 -5.5t-81.5 6.5zM673 78q-17 25 14 33l16 4l2 159l1 159h-13q-12 0 -20 11t-8 15t8 12q9 8 88.5 8.5t86.5 -8.5
q8 -9 3 -21.5t-18 -14.5l-15 -3v-160v-160h12q16 0 21.5 -13t-5.5 -25q-8 -8 -87 -8q-58 0 -69.5 1.5t-16.5 10.5zM84 536q-10 10 -10 21.5t8.5 19.5t207.5 142q126 85 166 109.5t51 24.5t53 -26.5t171 -113.5q122 -82 164.5 -113.5t43.5 -38.5q2 -11 -9.5 -23.5
t-23.5 -12.5t-198.5 127.5t-199.5 127.5q-12 0 -36 -15t-174 -118q-180 -122 -192 -122t-22 11zM273 539q-7 5 -3.5 14.5t112.5 83t125 73.5t113.5 -66t111.5 -78q25 -21 6 -28q-9 -4 -234 -3t-231 4z" />
    <glyph glyph-name="uniE61D" unicode="&#xe61d;" 
d="M321 -62q-34 11 -62.5 36.5t-45.5 60.5q-9 17 -10.5 34.5t-1.5 86.5q0 71 1.5 88t11.5 39q12 24 35.5 48.5t42.5 32.5q16 6 18 7.5t-19 44.5q-68 136 -2 274q18 40 50 72t72 51q30 14 43 16.5t56.5 2.5t56.5 -2.5t43 -16.5q40 -19 72 -51t50 -72q65 -138 -2 -274
q-21 -43 -19 -44.5t18 -7.5q19 -8 42.5 -32.5t35.5 -48.5q10 -22 11.5 -39t1.5 -88q0 -69 -1.5 -86.5t-10.5 -34.5q-13 -26 -35 -49.5t-44 -35.5l-27 -14l-184 -1q-184 -1 -197 3zM691 2q48 23 68 72q7 18 7 83q0 44 -2 59t-10 33q-10 21 -31.5 41.5t-41.5 27.5
q-12 4 -21 1.5t-36 -16.5q-40 -21 -77 -27q-73 -13 -150 27q-27 14 -36 16.5t-21 -1.5q-20 -7 -41.5 -27.5t-31.5 -41.5q-8 -18 -10 -33t-3 -59q0 -65 8 -83q13 -32 40 -54.5t61 -29.5q22 -5 160 -4l138 1zM584 343q65 31 100 103t22 149q-10 57 -42 101.5t-80 67.5
q-21 10 -34.5 13t-39 3t-39 -3t-35.5 -13q-64 -31 -98.5 -99.5t-23.5 -145.5q10 -67 52.5 -119.5t100.5 -67.5q21 -5 59 -1.5t58 12.5z" />
    <glyph glyph-name="uniE61E" unicode="&#xe61e;" horiz-adv-x="1031" 
d="M262 62q-10 10 -10 43v33l-113 2q-84 1 -100 3t-23 11q-15 17 -8 63.5t30 84.5q14 23 39.5 48t45.5 34q16 8 16 11t-11 31q-24 63 -11 131.5t57 109.5q22 21 42.5 29t50.5 8q34 0 60 -14q23 -11 43.5 -34.5t32.5 -50.5q10 -23 11 -25t18 11q32 25 77 25q51 0 92 -36
l17 -15l9 24q10 29 31 56t43 40q57 34 114 12.5t88 -87.5q21 -44 22 -93.5t-18 -93.5q-10 -24 -10 -27.5t18 -12.5q19 -9 42 -31t38 -44q24 -39 32.5 -87.5t-7.5 -66.5q-7 -9 -23.5 -11t-106.5 -3l-121 -2v-32q0 -22 -2 -29t-11 -14q-10 -8 -43 -9.5t-206 -1.5
q-171 0 -204 1.5t-41 8.5zM717 126q-4 35 -31 72.5t-62 55.5l-19 10l-30 -15q-18 -10 -30.5 -12.5t-37.5 -2.5t-36 2.5t-28 13.5q-19 12 -24.5 12.5t-18.5 -5.5q-21 -11 -44 -33t-34 -43q-10 -19 -17 -45t-3 -30q3 -3 210 -3h207zM280 212q12 20 36 44.5t43 34.5
q23 14 25 15t-8 21t-14 23t-24 -10q-34 -21 -72.5 -20.5t-71.5 22.5l-19 12l-21 -11q-34 -17 -61.5 -53.5t-33.5 -73.5l-3 -21h107h107zM978 216q-5 35 -33 72.5t-63 54.5l-21 11l-19 -12q-66 -43 -138 -4q-21 12 -26.5 12.5t-16.5 -5.5q-8 -4 -15 -13.5t-8.5 -17t1.5 -10.5
q15 -5 42.5 -28.5t43.5 -45.5l26 -35h115h114zM556 298q23 16 40 50q11 22 14 35t3 40t-3 40t-13 35q-31 66 -85 66q-41 0 -69 -33q-27 -30 -35 -78.5t7 -88.5q21 -55 60.5 -73.5t80.5 7.5zM312 385q16 11 27 26q9 12 17.5 44.5t11.5 64.5q4 40 -21 81t-59 50q-32 9 -61 -8
t-45 -49t-20 -72t15 -78q13 -28 25 -42t32 -23q38 -18 78 6zM798 377q50 21 71 93q16 54 -11 114q-15 35 -39 53t-49 16.5t-47.5 -15.5t-38 -45t-17.5 -71q-2 -49 16 -87t51 -55q20 -9 32.5 -10t31.5 7z" />
    <glyph glyph-name="uniE61F" unicode="&#xe61f;" 
d="M468 -25q-65 8 -123 37q-28 14 -51.5 30t-22 19.5t26.5 26.5q15 14 21.5 17t11.5 -1q17 -11 52 -27.5t55 -22.5q30 -8 78.5 -8t77.5 8q20 6 55.5 22.5t52.5 27.5q5 4 11 1t22 -17q25 -23 26.5 -26.5t-22 -19.5t-52.5 -30q-46 -23 -106.5 -33.5t-112.5 -3.5zM157 90
q-70 25 -75 97q-3 54 37 89q34 30 86 25q56 -5 84 -52q40 -69 -15 -129q-23 -25 -54.5 -33t-62.5 3zM804 90q-35 11 -57.5 44.5t-19.5 68.5q3 22 17.5 46t32.5 37q18 11 48.5 15t51.5 -3q19 -6 37 -22.5t28 -35.5q12 -23 9.5 -54t-18.5 -53q-21 -31 -57.5 -42.5t-71.5 -0.5z
M137 360q0 48 25 111t61 107q45 53 109 88l28 15l6 -26q6 -27 9 -37q2 -6 -2.5 -11.5t-20.5 -14.5q-26 -15 -59.5 -50.5t-47.5 -63.5q-25 -51 -33 -109l-3 -24l-29 -4q-29 -3 -36 -6q-4 -2 -5 6q-2 5 -2 19zM856 340l-31 5l-8 43q-12 64 -49 119t-88 85q-15 9 -19.5 14.5
t-2.5 11.5q3 10 9 37l6 26l35 -19q77 -43 129 -123t57 -163q1 -12 1 -21.5t-1 -15t-2 -5.5q-5 1 -36 6zM468 579q-33 15 -49.5 45.5t-14 61.5t23 58.5t56.5 37.5q28 8 49 5q45 -8 71.5 -41t24.5 -75t-34 -72q-24 -23 -60.5 -28.5t-66.5 8.5z" />
    <glyph glyph-name="uniE620" unicode="&#xe620;" 
d="M90 274v337l109 109l109 108h231h232v-264v-264l-19 3q-19 3 -31 3h-11l-2 232l-1 232h-169h-169l-1 -109l-2 -109h-107h-108l2 -278l1 -278l179 -1l179 -2l19 -28l19 -27h-230h-230v336zM650 -23q-67 24 -133 95q-38 41 -38 47t26 35q149 171 296 93q29 -15 66 -47.5
t57 -59.5l17 -23l-53 -53q-32 -33 -50.5 -47t-42.5 -26q-77 -38 -145 -14zM764 43q33 26 39.5 60t-15.5 69q-27 44 -81 44q-44 0 -76 -39q-10 -12 -13 -22t-5 -29q-1 -22 1.5 -31t12.5 -25q16 -25 36 -35t50 -9q20 1 29.5 4t21.5 13zM693 87q-13 5 -19 19q-8 18 2 34
t26.5 17.5t31.5 -11.5q22 -23 5.5 -46t-46.5 -13zM244 291v15h107h108v-15v-16h-108h-107v16zM244 352v16h184h184v-16v-15h-184h-184v15zM244 414v15h184h184v-15v-16h-184h-184v16zM244 475v16h184h184v-16v-15h-184h-184v15z" />
    <glyph glyph-name="uniE621" unicode="&#xe621;" 
d="M145 793l526 -577l300 279l49 -198q-13 -8 -35 -21.5t-79 -50.5t-102.5 -68.5t-86 -65t-49.5 -49.5q-4 19 -317.5 273t-349.5 274q16 35 52 86t63.5 84.5t28.5 33.5z" />
    <glyph glyph-name="uniE622" unicode="&#xe622;" 
d="M64 272l448 -336l448 784l-112 112l-336 -672l-336 224z" />
    <glyph glyph-name="uniE623" unicode="&#xe623;" 
d="M530 407q22 10 41 20q20 10 31 14q12 5 18 5q12 0 20.5 -8t8.5 -19q0 -7 -4 -14t-9 -9q-43 -17 -94 -24q9 -8 23 -23l14 -15q6 -8 14 -17q9 -11 12 -16q4 -6 4 -14q0 -11 -8 -19t-20 -8q-13 0 -28.5 19.5t-40.5 70.5q-24 -45 -33 -60t-17 -22.5t-18 -7.5q-12 0 -20 8.5
t-8 18.5q0 9 3 13q31 42 63 72q-27 4 -49 9q-23 6 -46 16q-4 2 -8 9t-4 13q0 11 8.5 19t19.5 8q8 0 20 -5t30 -14q17 -8 41 -20q-4 21 -6.5 47.5t-2.5 36.5q0 12 7.5 21t19.5 9t20 -9t8 -23q0 -4 -2 -16q0 -8 -3 -28q-2 -18 -5 -38z" />
    <glyph glyph-name="uniE624" unicode="&#xe624;" 
d="M548 420q44 21 83 41q40 20 64 30q24 9 38 9q23 0 40 -16q18 -16 18 -39q0 -14 -8.5 -28.5t-18.5 -18.5q-88 -35 -192 -50q17 -15 47 -47q28 -29 29 -31q11 -15 28 -35q19 -21 26 -33t7 -28q0 -22 -16 -38t-42 -16t-58 39q-32 40 -83 144q-50 -92 -69 -123
q-17 -30 -34 -45q-16 -15 -37 -15q-25 0 -41 17q-17 17 -17 37q0 18 7 27q63 86 130 147q-56 9 -102 20t-94 31q-8 4 -16 19q-8 14 -8 27q0 23 17 39t40 16q16 0 41 -10t61 -28q35 -17 86 -42q-9 43 -14.5 97.5t-5.5 75.5q0 25 15 43q16 18 41 18t40.5 -18t15.5 -48
q0 -6 -2 -32q-1 -15 -7 -58q-4 -37 -9 -78z" />
    <glyph glyph-name="uniE625" unicode="&#xe625;" 
d="M974 36h-247h-66v-77l66 -62v-15h-430v15l66 62v77h-66h-247q-21 0 -35.5 13.5t-14.5 32.5v617q0 19 14.5 32.5t35.5 13.5h924q21 0 35.5 -13.5t14.5 -32.5v-617q0 -19 -14.5 -32.5t-35.5 -13.5zM958 683h-892v-524h892v524zM738 497q-94 80 -225.5 80t-225.5 -80l-30 34
q107 88 255 88t256 -88zM512 514q107 0 181 -67l-30 -34q-61 59 -151 59t-150 -59l-31 34q74 67 181 67zM512 409q66 0 105 -47l-27 -29q-29 34 -78 34t-78 -34l-27 29q39 47 105 47zM512 304q20 0 34.5 -12.5t14.5 -29.5t-14.5 -29.5t-34.5 -12.5t-34 12.5t-14 29.5
t14 29.5t34 12.5z" />
    <glyph glyph-name="uniE626" unicode="&#xe626;" 
d="M918 713q-79 80 -191 80q-104 0 -181 -78v0l-29 -36l-29 34v0q-79 80 -181 80q-112 0 -191 -80t-79 -192.5t79 -192.5l359 -365q17 -18 42 -18t43 18l359 365q79 80 79 192.5t-79 192.5h-1zM849 336l-290 -292q-15 -14 -35 -14t-34 14l-290 292q-64 64 -64 154t64 154
t154 64q83 0 147 -64v0l23 -27l24 29v0q62 62 146 62q91 0 155 -64t64 -154t-64 -154zM610 524q-46 0 -80 -34v0l-13 -17l-13 16v0q-35 36 -79 36q-50 0 -85 -36t-35 -87t35 -87l158 -164q8 -8 19 -8t19 8l158 164q35 36 35 87t-35 87t-84 36v-1z" />
    <glyph glyph-name="uniE627" unicode="&#xe627;" 
d="M832 288q0 -18 -12.5 -30.5t-30 -12.5t-30 12.5t-12.5 30.5t12.5 30.5t30 12.5t30 -12.5t12.5 -30.5zM725 -11v86q89 0 151.5 62.5t62.5 150.5t-62.5 150.5t-151.5 62.5h-426v86h341v149q0 18 12.5 30.5t30 12.5t30 -12.5t12.5 -30.5v-149q124 0 211.5 -87.5t87.5 -211.5
t-87.5 -211.5t-211.5 -87.5zM85 288q0 -88 62.5 -150.5t151.5 -62.5v-86q-124 0 -211.5 87.5t-87.5 211.5t87.5 211.5t211.5 87.5v-86q-89 0 -151.5 -62.5t-62.5 -150.5zM192 288q0 18 12.5 30.5t30.5 12.5h64v64q0 17 12.5 29.5t30 12.5t30 -12.5t12.5 -29.5v-64h64
q18 0 30.5 -12.5t12.5 -30.5t-12.5 -30.5t-30.5 -12.5h-64v-64q0 -17 -12.5 -29.5t-30 -12.5t-30 12.5t-12.5 29.5v64h-64q-18 0 -30.5 12.5t-12.5 30.5zM576 288q0 18 12.5 30.5t30 12.5t30 -12.5t12.5 -30.5t-12.5 -30.5t-30 -12.5t-30 12.5t-12.5 30.5zM725 -11h-426v86
h426v-86z" />
    <glyph glyph-name="uniE628" unicode="&#xe628;" 
d="M434 503q78 0 151.5 17t119.5 48v-78h59v171q0 48 -50 85t-123.5 54.5t-156.5 17.5t-157 -17.5t-124 -54.5t-50 -85v-465q0 -49 50 -86t124 -54.5t157 -17.5v59q-118 0 -195 32t-77 67v140q47 -31 120 -48t152 -17v58q-118 0 -195 32.5t-77 66.5v140q47 -31 120 -48
t152 -17zM434 759q117 0 194 -32t77 -66.5t-77 -66.5t-194.5 -32t-194.5 32t-77 66.5t77 66.5t195 32zM698 471q-104 0 -163.5 -33.5t-59.5 -78.5v-299q0 -45 59.5 -78t163.5 -33q103 0 162.5 32.5t59.5 77.5h1v300q0 45 -59.5 78.5t-163.5 33.5zM698 412q31 0 58.5 -4
t46 -10t32.5 -13.5t20.5 -14t6.5 -11.5q0 -9 -17.5 -21t-57 -22t-89.5 -10q-31 0 -58.5 4t-46.5 10t-32.5 13.5t-20 14t-6.5 11.5q0 9 17.5 21t57 22t89.5 10zM698 7q-31 0 -58.5 4t-46.5 10.5t-32.5 13.5t-20 13.5t-6.5 11.5v72q62 -34 163.5 -34t164.5 34v-72
q0 -9 -17.5 -20.5t-57 -22t-89.5 -10.5zM698 157q-31 0 -58.5 4t-46.5 10t-32.5 13.5t-20 14t-6.5 11.5v71q62 -34 163.5 -34t164.5 34v-71q0 -9 -17.5 -21t-57 -22t-89.5 -10zM698 157z" />
  </font>
</defs>
</svg>
